<?xml version="1.0" encoding="UTF-8"?>
<svg version="1.1" xmlns="http://www.w3.org/2000/svg" width="512" height="512">
<path d="M0 0 C168.96 0 337.92 0 512 0 C512 168.96 512 337.92 512 512 C343.04 512 174.08 512 0 512 C0 343.04 0 174.08 0 0 Z " fill="#FEFDFD" transform="translate(0,0)"/>
<path d="M0 0 C6.40542465 3.59585965 10.80355164 7.79737366 13.171875 14.90234375 C14.10125206 28.28894795 14.10125206 28.28894795 10.171875 33.90234375 C9.615 34.76859375 9.058125 35.63484375 8.484375 36.52734375 C5.4766665 39.61634166 2.17603961 41.35094664 -1.828125 42.90234375 C-2.488125 42.90234375 -3.148125 42.90234375 -3.828125 42.90234375 C-3.828125 51.81234375 -3.828125 60.72234375 -3.828125 69.90234375 C-1.25 69.59296875 1.328125 69.28359375 3.984375 68.96484375 C4.79237549 68.86953369 5.60037598 68.77422363 6.43286133 68.67602539 C9.48166417 68.30233572 12.25039044 67.87617194 15.171875 66.90234375 C15.13707031 66.07992187 15.10226562 65.2575 15.06640625 64.41015625 C14.75536869 51.58355963 17.57599135 42.01244487 26.109375 32.33984375 C34.46557395 24.28009532 45.97964932 20.5128722 57.29296875 20.62890625 C66.29400015 21.26342004 74.43470308 24.45126951 82.6171875 28.05859375 C83.3069165 28.36177017 83.99664551 28.66494659 84.70727539 28.97731018 C92.31598365 32.35832906 99.74578599 36.07875448 107.171875 39.83984375 C108.5050122 40.51145718 109.83834559 41.18268131 111.171875 41.85351562 C113.82802526 43.19039682 116.4836665 44.52827811 119.13867188 45.86743164 C120.12661743 46.36570969 120.12661743 46.36570969 121.13452148 46.87405396 C122.52625748 47.57648871 123.91768254 48.27953977 125.30883789 48.98312378 C127.43915481 50.05998034 129.57100635 51.13374731 131.703125 52.20703125 C132.3415332 52.53070175 132.97994141 52.85437225 133.63769531 53.18785095 C143.76936348 58.2783143 154.3036638 62.11553801 165.15820312 65.3425293 C170.07903811 66.80950686 170.07903811 66.80950686 171.171875 67.90234375 C171.671875 70.58984375 171.671875 70.58984375 171.171875 73.90234375 C167.02530624 78.60199725 161.42439448 81.80118687 155.984375 84.77734375 C155.20537842 85.20442627 154.42638184 85.63150879 153.6237793 86.0715332 C116.51572466 105.91693413 73.16292724 112.71517774 31.734375 116.15234375 C30.80286621 116.23258789 29.87135742 116.31283203 28.91162109 116.39550781 C17.96546572 117.19886108 7.22219374 116.90234375 -3.828125 116.90234375 C-3.828125 138.35234375 -3.828125 159.80234375 -3.828125 181.90234375 C18.22214781 181.38834318 18.22214781 181.38834318 40.234375 173.71484375 C42.67784817 170.16786657 43.57076343 167.1493323 43.171875 162.90234375 C41.54888651 157.67271418 38.9724091 153.66009738 34.171875 150.90234375 C28.41460953 148.77215553 22.91648692 147.8065369 16.796875 147.52734375 C12.95938199 147.30307468 10.67607725 147.1173867 7.921875 144.33984375 C7.344375 143.53546875 6.766875 142.73109375 6.171875 141.90234375 C8.046875 137.02734375 8.046875 137.02734375 9.171875 135.90234375 C22.7712934 135.08902665 36.37750978 136.36925291 47.16015625 145.60546875 C53.87102111 152.99907668 54.51037175 159.52089768 54.5703125 169.28125 C53.81954899 176.10436546 50.64797753 180.03072441 45.5625 184.296875 C42.14682581 186.59073463 38.59364994 187.84489766 34.6875 189.078125 C32.36973902 189.83751563 30.31834444 190.7538823 28.171875 191.90234375 C28.52121094 192.44503906 28.87054688 192.98773438 29.23046875 193.546875 C29.68550781 194.26230469 30.14054688 194.97773438 30.609375 195.71484375 C31.06183594 196.42253906 31.51429688 197.13023437 31.98046875 197.859375 C34.43299748 202.06485869 34.64596821 206.15263218 34.171875 210.90234375 C32.09813314 217.46919297 28.64615762 222.85132644 22.6640625 226.3828125 C20.93876376 227.24043184 19.19835344 228.06861382 17.44140625 228.859375 C14.97221752 229.92235869 14.97221752 229.92235869 12.171875 231.90234375 C12.71457031 232.26585937 13.25726563 232.629375 13.81640625 233.00390625 C18.27440123 236.13655137 21.51332505 238.51205643 23.171875 243.90234375 C23.85461194 249.87141527 23.76630342 254.89192838 20.171875 259.90234375 C17.28313765 262.7091311 14.27661083 265.33784497 11.171875 267.90234375 C11.82285156 268.50949219 12.47382813 269.11664063 13.14453125 269.7421875 C15.171875 271.90234375 15.171875 271.90234375 15.609375 274.46484375 C15.171875 276.90234375 15.171875 276.90234375 14.171875 278.77734375 C9.20542418 281.57097234 1.38071632 278.22773479 -3.828125 276.90234375 C-3.81765137 277.49772949 -3.80717773 278.09311523 -3.79638672 278.70654297 C-3.75488551 281.39676718 -3.72881796 284.08692412 -3.703125 286.77734375 C-3.68636719 287.71449219 -3.66960937 288.65164063 -3.65234375 289.6171875 C-3.64267578 290.96103516 -3.64267578 290.96103516 -3.6328125 292.33203125 C-3.61710205 293.57315674 -3.61710205 293.57315674 -3.60107422 294.83935547 C-3.828125 296.90234375 -3.828125 296.90234375 -5.828125 298.90234375 C-8.765625 299.27734375 -8.765625 299.27734375 -11.828125 298.90234375 C-13.92489619 297.09814528 -14.74181605 295.64093368 -15.0637207 292.88623047 C-15.1237304 290.46796733 -15.08929312 288.07016914 -15.015625 285.65234375 C-15.00208984 284.811875 -14.98855469 283.97140625 -14.97460938 283.10546875 C-14.93935964 281.03748437 -14.8855552 278.96983104 -14.828125 276.90234375 C-15.56417969 277.13050781 -16.30023438 277.35867188 -17.05859375 277.59375 C-18.52232422 278.02494141 -18.52232422 278.02494141 -20.015625 278.46484375 C-20.97855469 278.75488281 -21.94148437 279.04492188 -22.93359375 279.34375 C-26.00136466 279.93577597 -27.86533366 279.83877003 -30.828125 278.90234375 C-31.488125 278.24234375 -32.148125 277.58234375 -32.828125 276.90234375 C-32.640625 273.40234375 -32.640625 273.40234375 -31.828125 269.90234375 C-30.838125 269.24234375 -29.848125 268.58234375 -28.828125 267.90234375 C-29.900625 267.20109375 -30.973125 266.49984375 -32.078125 265.77734375 C-36.48571198 262.63671497 -39.10792708 259.0629375 -40.828125 253.90234375 C-41.35886293 247.97236806 -41.44057737 242.86946576 -37.828125 237.90234375 C-35.27724084 235.71874666 -32.61673389 233.77024805 -29.828125 231.90234375 C-31.11396484 231.28359375 -31.11396484 231.28359375 -32.42578125 230.65234375 C-40.82428348 226.41048468 -47.61134079 222.3961133 -51.265625 213.33984375 C-52.6951076 204.60411677 -51.02567694 198.58447338 -46.078125 191.33984375 C-45.665625 190.86546875 -45.253125 190.39109375 -44.828125 189.90234375 C-46.065625 189.86109375 -47.303125 189.81984375 -48.578125 189.77734375 C-55.52765094 188.98562561 -62.56227053 186.05509503 -67.6328125 181.16015625 C-71.87634042 175.51048889 -73.40873998 169.86972353 -72.828125 162.90234375 C-70.88552341 153.98339192 -67.64514089 147.64564236 -60.109375 142.2890625 C-51.84491033 137.26528688 -43.66179374 135.76219389 -34.078125 135.71484375 C-32.76328125 135.70066406 -31.4484375 135.68648437 -30.09375 135.671875 C-26.828125 135.90234375 -26.828125 135.90234375 -24.828125 137.90234375 C-24.453125 140.83984375 -24.453125 140.83984375 -24.828125 143.90234375 C-28.06289661 147.23893626 -30.88424058 147.25424762 -35.390625 147.33984375 C-42.78389286 147.74758901 -50.02079472 148.59914613 -55.8046875 153.6171875 C-59.13557058 157.35061806 -60.69918115 160.16160175 -61.078125 165.27734375 C-60.79860713 169.3303528 -60.52329637 170.88048494 -57.828125 173.90234375 C-45.67858367 181.57573828 -27.99119186 180.70570131 -14.828125 181.90234375 C-14.828125 160.45234375 -14.828125 139.00234375 -14.828125 116.90234375 C-23.078125 116.90234375 -31.328125 116.90234375 -39.828125 116.90234375 C-84.80962149 114.14837458 -154.24883261 109.09742178 -188.828125 74.90234375 C-189.7734375 72.4453125 -189.7734375 72.4453125 -189.828125 69.90234375 C-188.8515625 67.7265625 -188.8515625 67.7265625 -186.828125 65.90234375 C-184.3402829 65.01467694 -182.00612167 64.33273491 -179.453125 63.71484375 C-159.97057744 58.4646015 -141.72204221 48.84525474 -124.01953125 39.328125 C-81.33426827 16.39015038 -81.33426827 16.39015038 -61.484375 21.81640625 C-51.30088928 25.80236657 -41.52349467 32.46681205 -36.5390625 42.49609375 C-34.38990216 47.7530327 -32.68331168 52.62370226 -32.703125 58.33984375 C-32.70054687 59.08105469 -32.69796875 59.82226562 -32.6953125 60.5859375 C-32.828125 62.90234375 -32.828125 62.90234375 -33.828125 67.90234375 C-27.558125 68.56234375 -21.288125 69.22234375 -14.828125 69.90234375 C-14.828125 60.99234375 -14.828125 52.08234375 -14.828125 42.90234375 C-17.798125 41.91234375 -17.798125 41.91234375 -20.828125 40.90234375 C-25.88728648 37.46211394 -29.14859136 33.8740189 -30.828125 27.90234375 C-31.77426053 20.98576674 -31.9970612 14.80613936 -28.140625 8.77734375 C-21.07677312 -0.16025287 -11.11229263 -4.31292021 0 0 Z " fill="#FAA140" transform="translate(263.828125,99.09765625)"/>
<path d="M0 0 C6.12032475 4.28310019 10.09924372 9.20219153 11.80859375 16.609375 C12.13004174 21.50527511 11.93164916 26.16006879 11.05859375 30.984375 C10.40766749 34.5697985 10.40766749 34.5697985 12.42578125 36.69921875 C20.41892684 43.10683874 32.04298249 43.21480485 41.80859375 43.609375 C41.80859375 51.859375 41.80859375 60.109375 41.80859375 68.609375 C27.27224062 68.84257853 13.12439798 68.71305121 -1.31640625 67.234375 C-3.21845825 67.04524536 -3.21845825 67.04524536 -5.15893555 66.85229492 C-11.83015639 66.11483081 -11.83015639 66.11483081 -14.19140625 65.609375 C-14.52140625 64.949375 -14.85140625 64.289375 -15.19140625 63.609375 C-14.40894531 63.30644531 -13.62648438 63.00351563 -12.8203125 62.69140625 C-11.80839844 62.27246094 -10.79648438 61.85351562 -9.75390625 61.421875 C-8.74457031 61.01582031 -7.73523438 60.60976562 -6.6953125 60.19140625 C-3.99469345 58.83129605 -3.99469345 58.83129605 -3.21875 56.12109375 C-2.95264244 53.35681875 -2.95264244 53.35681875 -5.19140625 50.609375 C-13.56590147 51.067433 -20.16592628 54.55688445 -27.61523438 58.19140625 C-34.07780995 61.18072219 -38.26400193 62.22070092 -45.19140625 60.609375 C-46.58806519 60.34302246 -46.58806519 60.34302246 -48.01293945 60.07128906 C-51.06254304 59.48223678 -54.09447836 58.83438854 -57.12890625 58.171875 C-58.16853516 57.95466797 -59.20816406 57.73746094 -60.27929688 57.51367188 C-61.26994141 57.29904297 -62.26058594 57.08441406 -63.28125 56.86328125 C-64.17706787 56.67064697 -65.07288574 56.4780127 -65.99584961 56.27954102 C-68.19140625 55.609375 -68.19140625 55.609375 -70.19140625 53.609375 C-69.38622559 53.36292236 -68.58104492 53.11646973 -67.75146484 52.86254883 C-64.690287 51.92386648 -61.63002796 50.98225558 -58.5703125 50.03881836 C-57.25978693 49.63534637 -55.94892722 49.23295768 -54.63769531 48.83178711 C-47.50357565 46.64826431 -40.39844654 44.39723185 -33.35546875 41.93359375 C-32.21803223 41.53615967 -31.0805957 41.13872559 -29.90869141 40.72924805 C-27.10192993 39.77611707 -27.10192993 39.77611707 -25.19140625 37.609375 C-25.51339591 34.51010681 -25.51339591 34.51010681 -26.19140625 31.609375 C-31.28494655 29.87133119 -35.15106222 31.57357297 -40.0078125 33.25 C-40.86011948 33.53284851 -41.71242645 33.81569702 -42.59056091 34.1071167 C-45.31556732 35.01335224 -48.03485763 35.93543346 -50.75390625 36.859375 C-89.49398619 49.89921141 -89.49398619 49.89921141 -106.49291992 41.71948242 C-109.90937866 39.99048611 -112.5626166 38.43739923 -115.19140625 35.609375 C-114.66933594 35.40892578 -114.14726563 35.20847656 -113.609375 35.00195312 C-111.13350832 34.045861 -108.66255164 33.07760156 -106.19140625 32.109375 C-105.3715625 31.79484375 -104.55171875 31.4803125 -103.70703125 31.15625 C-95.26845779 27.83196348 -87.2608859 23.72822874 -79.19140625 19.609375 C-77.72675271 18.86453471 -76.26190698 18.12007223 -74.796875 17.37597656 C-73.69267212 16.81514374 -73.69267212 16.81514374 -72.56616211 16.24298096 C-69.53968171 14.70748964 -66.51136053 13.17565527 -63.48242188 11.64501953 C-61.95363193 10.87052386 -60.42628563 10.09317202 -58.90039062 9.31298828 C-18.13974701 -11.5111407 -18.13974701 -11.5111407 0 0 Z " fill="#FDFCFB" transform="translate(208.19140625,136.390625)"/>
<path d="M0 0 C10.34439639 5.06316745 20.52942912 10.41512715 30.71588135 15.78796387 C40.32268739 20.79201628 50.14777276 24.91819125 60.30914307 28.64904785 C57.10579238 32.10112496 53.50271249 33.80586143 49.30914307 35.83654785 C48.60402588 36.2045752 47.89890869 36.57260254 47.17242432 36.95178223 C37.77406665 41.4991025 28.67961934 39.97427248 18.93414307 37.27404785 C17.97459717 37.01873291 17.01505127 36.76341797 16.02642822 36.50036621 C10.12129651 34.87390119 4.32240848 33.01069186 -1.45648193 30.9888916 C-2.11028839 30.76024414 -2.76409485 30.53159668 -3.43771362 30.29602051 C-6.66988969 29.15932571 -9.89256913 28.00120597 -13.10638428 26.81359863 C-14.28152588 26.38933594 -15.45666748 25.96507324 -16.66741943 25.5279541 C-17.7097876 25.14196045 -18.75215576 24.7559668 -19.82611084 24.35827637 C-22.90757085 23.59539574 -24.68352088 23.71366356 -27.69085693 24.64904785 C-29.1066317 25.83329111 -29.1066317 25.83329111 -28.75335693 29.21154785 C-28.73273193 30.34592285 -28.71210693 31.48029785 -28.69085693 32.64904785 C-28.12705322 32.81267822 -27.56324951 32.97630859 -26.98236084 33.14489746 C-18.41086398 35.67071878 -9.96409486 38.54926206 -1.50335693 41.42053223 C4.39705656 43.40612081 10.23848595 45.26253974 16.30914307 46.64904785 C11.40952403 49.91546054 5.69486548 50.57324867 -0.00335693 51.83654785 C-1.22732178 52.1220752 -2.45128662 52.40760254 -3.71234131 52.70178223 C-4.89763428 52.96668457 -6.08292725 53.23158691 -7.30413818 53.5045166 C-8.38477539 53.74839111 -9.4654126 53.99226563 -10.57879639 54.24353027 C-16.08529259 54.9610552 -20.34355314 53.56254977 -25.35101318 51.3638916 C-26.39193115 50.91594238 -27.43284912 50.46799316 -28.50531006 50.00646973 C-30.6753886 49.05779438 -32.84465749 48.10726486 -35.01312256 47.15490723 C-36.05275146 46.70824707 -37.09238037 46.26158691 -38.16351318 45.8013916 C-39.10460937 45.38881104 -40.04570557 44.97623047 -41.01531982 44.55114746 C-43.79931253 43.61248033 -45.77779958 43.31740172 -48.69085693 43.64904785 C-50.97229507 45.51402262 -50.97229507 45.51402262 -51.00335693 48.46154785 C-49.34784208 52.48208391 -48.00966234 52.77297048 -44.12835693 54.52404785 C-42.32473342 55.2546877 -40.51454791 55.97004594 -38.69085693 56.64904785 C-39.02085693 57.30904785 -39.35085693 57.96904785 -39.69085693 58.64904785 C-42.36102295 59.15148926 -42.36102295 59.15148926 -45.94476318 59.50061035 C-46.58945053 59.56450455 -47.23413788 59.62839874 -47.89836121 59.69422913 C-50.01578618 59.89902601 -52.13424031 60.08762428 -54.25335693 60.27404785 C-54.96983398 60.34008209 -55.68631104 60.40611633 -56.42449951 60.47415161 C-69.55476937 61.67477297 -82.49793751 61.89641509 -95.69085693 61.64904785 C-95.69085693 53.39904785 -95.69085693 45.14904785 -95.69085693 36.64904785 C-93.64898193 36.56654785 -91.60710693 36.48404785 -89.50335693 36.39904785 C-81.58531399 35.82830567 -72.68598225 34.85169749 -66.30804443 29.7388916 C-64.28993068 27.60947135 -64.28993068 27.60947135 -64.94085693 24.02404785 C-65.06460693 23.33053223 -65.18835693 22.6370166 -65.31585693 21.92248535 C-66.64213647 13.88191565 -66.02000498 6.62721315 -61.43695068 -0.22595215 C-44.47572718 -21.67011484 -20.04812963 -9.74948198 0 0 Z " fill="#FDFCFB" transform="translate(355.69085693359375,143.3509521484375)"/>
<path d="M0 0 C18.64761679 1.43443206 18.64761679 1.43443206 24.70703125 6.3984375 C26.5405706 8.66958897 27.00270653 11.00937629 27.234375 13.87890625 C26.86307349 17.23918489 25.46659296 19.02123787 23.1328125 21.3984375 C16.30031791 26.5290653 8.19590893 28.17868691 0 30 C0 20.1 0 10.2 0 0 Z " fill="#FDFBF8" transform="translate(260,293)"/>
<path d="M0 0 C0 9.57 0 19.14 0 29 C-9.43244791 27.82094401 -18.87233915 25.81805005 -25 18 C-26.45147903 15.09704195 -26.37239025 13.22738221 -26 10 C-22.5975258 4.57730674 -19.1064812 2.61713138 -13 1 C-8.41893669 -0.02840197 -4.85676922 0 0 0 Z " fill="#FDFCFB" transform="translate(249,293)"/>
<path d="M0 0 C3.1120943 1.69874143 5.28252255 4.06415985 7.4375 6.875 C8.31927745 10.20615926 7.81612906 12.67718884 7 16 C4.82424115 19.37617753 2.88073226 21.78034129 -1 23 C-4.2745964 23.42448472 -6.77289608 23.70160156 -9.71484375 22.01953125 C-12.56839597 19.75203865 -15.0840736 17.56193601 -16 14 C-15.92002707 8.96170538 -15.80642825 6.97184942 -12.5625 3.0625 C-8.54307006 -0.17265093 -5.09693919 -0.85264782 0 0 Z " fill="#FDFBF9" transform="translate(259,109)"/>
<path d="M0 0 C12.15189873 3.64556962 12.15189873 3.64556962 16 8 C16.75955147 11.64584707 16.37636547 13.29859163 14.625 16.5625 C10.92143411 20.00152546 5.24721327 24 0 24 C0 16.08 0 8.16 0 0 Z " fill="#FDF9F3" transform="translate(260,337)"/>
<path d="M0 0 C0 7.59 0 15.18 0 23 C-6.77668901 21.87055183 -6.77668901 21.87055183 -10.3125 19.0625 C-10.98925781 18.53785156 -11.66601562 18.01320313 -12.36328125 17.47265625 C-14.63352231 15.42998112 -14.96521779 14.22359994 -15.4375 11.1875 C-15 8 -15 8 -12.5 5.3125 C-9.17125345 2.84970423 -4.21785848 0 0 0 Z " fill="#FDFCFA" transform="translate(249,337)"/>
</svg>
